<svg xmlns="http://www.w3.org/2000/svg" fill="none" viewBox="0 0 362 462">
  <circle cx="180" cy="286" r="176" fill="#000"/>
  <mask id="a" width="362" height="136" x="0" y="217" maskUnits="userSpaceOnUse" style="mask-type:alpha">
    <path fill="#D9D9D9" d="M0 272.866h353.654v80.65H0z" transform="rotate(-8.967 0 272.866)"/>
  </mask>
  <g mask="url(#a)">
    <circle cx="180" cy="286" r="176" fill="#fff"/>
  </g>
  <path fill="#000" d="M132 287.823C132 306.698 116.554 322 97.5 322 78.446 322 63 306.698 63 287.823c34.5 0 34.5-.684 34.5-19.823 0 19.139 0 19.823 34.5 19.823ZM279 264.823C279 283.698 263.554 299 244.5 299c-19.054 0-34.5-15.302-34.5-34.177 34.5 0 34.5-.684 34.5-19.823 0 19.139 0 19.823 34.5 19.823ZM276.75 71.625c0 1.333-.167 3.25-.5 5.75-.25 2.5-.625 5.25-1.125 8.25-.5 2.917-1.042 5.958-1.625 9.125a142.06 142.06 0 0 1-1.625 8.5c-.5 2.583-.958 4.75-1.375 6.5-.333 1.75-.542 2.708-.625 2.875-.167.25-.625.417-1.375.5-.667 0-1.458-.083-2.375-.25a11.315 11.315 0 0 1-2.375-.75c-.667-.333-1.083-.75-1.25-1.25-.083-.333-.125-1.5-.125-3.5.083-2 .167-4.375.25-7.125.167-2.833.333-5.833.5-9 .167-3.25.333-6.25.5-9 .25-2.833.417-5.25.5-7.25.167-2 .25-3.208.25-3.625 0-1.5-.167-2.917-.5-4.25-.25-1.417-.583-2.625-1-3.625-.417-1-.917-1.75-1.5-2.25-.5-.583-.958-.792-1.375-.625-1.083.167-2 .458-2.75.875-.75.333-1.375.708-1.875 1.125a5.567 5.567 0 0 0-1.375 1.75c-.083.167-.25.667-.5 1.5-.167.833-.25 1.792-.25 2.875v3.625c0 2-.042 4.417-.125 7.25 0 2.833-.042 5.917-.125 9.25 0 3.25-.042 6.292-.125 9.125 0 2.75-.042 5.125-.125 7.125-.083 2-.167 3.125-.25 3.375-.167.5-.583 1.208-1.25 2.125A20.12 20.12 0 0 1 249 113c-.833.75-1.625 1.333-2.375 1.75-.75.333-1.25.25-1.5-.25-.25-.25-.5-1.458-.75-3.625-.25-2.25-.542-4.958-.875-8.125-.25-3.25-.542-6.75-.875-10.5-.333-3.833-.625-7.5-.875-11s-.458-6.667-.625-9.5a935.585 935.585 0 0 0-.375-6.125c-.083-1.75-.167-3.708-.25-5.875-.083-2.25-.167-4.333-.25-6.25v-5.125c.083-1.5.25-2.417.5-2.75.167-.333.708-.417 1.625-.25 1 .167 2.042.5 3.125 1A14.81 14.81 0 0 1 248.75 48c1 .583 1.667 1.167 2 1.75.167.5.375 1.083.625 1.75.25.583.458 1.583.625 3a34.054 34.054 0 0 1 4.625-2.25c1.667-.75 3.292-1.292 4.875-1.625 1.667-.417 3.25-.542 4.75-.375 1.5.083 2.833.5 4 1.25.75.583 1.5 1.583 2.25 3 .833 1.417 1.542 3.083 2.125 5a34.589 34.589 0 0 1 1.5 6.125c.417 2.083.625 4.083.625 6Zm21.5 40.75c4.25-.417 7.833-.75 10.75-1 2.917-.333 5.25-.583 7-.75 1.833-.25 3.125-.375 3.875-.375.833 0 1.333.042 1.5.125.333.417.333 1.25 0 2.5-.333 1.167-.833 2.458-1.5 3.875a39.611 39.611 0 0 1-2.25 4.125c-.75 1.333-1.375 2.25-1.875 2.75-.167.167-.833.292-2 .375-1.167.167-2.625.292-4.375.375-1.667.083-3.542.167-5.625.25-2 .083-3.917.125-5.75.125-1.833.083-3.417.125-4.75.125-1.333 0-2.208-.042-2.625-.125-.583-.083-1.167-.417-1.75-1-.5-.667-1-1.375-1.5-2.125A24.667 24.667 0 0 1 286.25 119c-.333-.917-.542-1.75-.625-2.5-.083-.25.125-1.167.625-2.75a494.37 494.37 0 0 0 1.75-6 394.02 394.02 0 0 1 2.5-7.5l2.625-7.875c.917-2.5 1.708-4.708 2.375-6.625l1.375-4.125a351.523 351.523 0 0 0 3.75-11.125c1.25-3.75 2.292-7.125 3.125-10.125.917-3.083 1.583-5.667 2-7.75.417-2.167.458-3.5.125-4-.25-.333-.958-.292-2.125.125-1.083.333-2.458.958-4.125 1.875A120.038 120.038 0 0 0 294.5 53.5a430.232 430.232 0 0 1-5.125 3.125c-1.583 1-2.958 1.875-4.125 2.625-1.167.667-1.875 1-2.125 1-.417.083-.75-.458-1-1.625-.167-1.167-.25-2.5-.25-4s.083-2.958.25-4.375c.167-1.5.417-2.542.75-3.125.167-.417.792-1.125 1.875-2.125 1.167-1 2.583-2.125 4.25-3.375 1.667-1.25 3.5-2.542 5.5-3.875 2-1.333 3.958-2.5 5.875-3.5 2-1 3.833-1.792 5.5-2.375 1.75-.583 3.208-.792 4.375-.625.75.167 1.833.792 3.25 1.875 1.5 1 2.958 2.167 4.375 3.5a32.57 32.57 0 0 1 3.75 3.875c1.167 1.25 1.833 2.125 2 2.625.083.417-.208 1.75-.875 4-.583 2.167-1.458 4.917-2.625 8.25a388.026 388.026 0 0 1-3.875 11c-1.5 4-3.083 8.083-4.75 12.25a954.72 954.72 0 0 1-4.75 12.25c-1.5 4-2.875 7.583-4.125 10.75a900.849 900.849 0 0 1-3.125 7.625c-.75 1.917-1.167 2.958-1.25 3.125Zm14.875 19.375c-.25-.5-.458-1.333-.625-2.5a14.959 14.959 0 0 1-.375-3.375c-.083-1.083-.042-2.042.125-2.875.083-.917.333-1.375.75-1.375s1.417.417 3 1.25c1.583.75 3.292 1.542 5.125 2.375 1.833.917 3.542 1.625 5.125 2.125 1.5.583 2.417.583 2.75 0 .417-.667.792-2.333 1.125-5 .333-2.75.625-5.958.875-9.625.25-3.75.458-7.75.625-12 .25-4.333.417-8.375.5-12.125.167-3.833.292-7.167.375-10 .083-2.833.167-4.667.25-5.5.083-.75.5-1.625 1.25-2.625.75-1.083 1.625-2 2.625-2.75 1-.833 2-1.458 3-1.875 1-.417 1.75-.458 2.25-.125.333.25.583 1.917.75 5 .25 3 .375 6.75.375 11.25.083 4.417.083 9.25 0 14.5 0 5.25-.083 10.208-.25 14.875-.083 4.667-.25 8.75-.5 12.25-.167 3.5-.333 5.708-.5 6.625-.167.5-.708 1.292-1.625 2.375-.917 1.167-2 2.333-3.25 3.5a31.389 31.389 0 0 1-3.625 3.125c-1.167.917-2.125 1.5-2.875 1.75-1.667.5-3.417.417-5.25-.25a22.613 22.613 0 0 1-5.25-2.75c-1.667-1.083-3.125-2.25-4.375-3.5s-2.042-2.167-2.375-2.75ZM344.5 44.375c.333.667.458 1.583.375 2.75 0 1.167-.125 2.417-.375 3.75a25.77 25.77 0 0 1-1 3.625c-.417 1.167-.833 2.083-1.25 2.75-.833 1.25-2.083 2.042-3.75 2.375-1.667.25-2.917.292-3.75.125-.583-.083-1.167-.5-1.75-1.25s-1.083-1.625-1.5-2.625a15.379 15.379 0 0 1-.875-3.5 10.527 10.527 0 0 1 .125-3.625c.25-1.083 1.042-2.083 2.375-3a13.911 13.911 0 0 1 4.375-2c1.583-.5 3.042-.708 4.375-.625 1.333 0 2.208.417 2.625 1.25Z"/>
</svg>
